<mxfile host="app.diagrams.net" modified="2022-06-10T12:33:42.597Z" agent="5.0 (Windows NT 10.0; Win64; x64) AppleWebKit/537.36 (KHTML, like Gecko) Chrome/102.0.5005.63 Safari/537.36 Edg/102.0.1245.33" etag="NCUi9J7cQ0WL2MDiA8vJ" version="19.0.3" type="github">
  <diagram name="Page-1" id="e7e014a7-5840-1c2e-5031-d8a46d1fe8dd">
    <mxGraphModel dx="1337" dy="-284" grid="1" gridSize="10" guides="1" tooltips="1" connect="1" arrows="1" fold="1" page="1" pageScale="1" pageWidth="1169" pageHeight="826" background="none" math="0" shadow="0">
      <root>
        <mxCell id="0" />
        <mxCell id="1" parent="0" />
        <mxCell id="pIqOZxi5pflwb6cRRVeg-24" style="edgeStyle=orthogonalEdgeStyle;rounded=0;orthogonalLoop=1;jettySize=auto;html=1;entryX=0;entryY=0.5;entryDx=0;entryDy=0;" parent="1" source="MWQz74-mzpOBfi5y9opP-47" target="pIqOZxi5pflwb6cRRVeg-10" edge="1">
          <mxGeometry relative="1" as="geometry" />
        </mxCell>
        <mxCell id="mw1B3DeKMrc1X_QG4Pau-24" style="edgeStyle=orthogonalEdgeStyle;rounded=0;orthogonalLoop=1;jettySize=auto;html=1;entryX=0.5;entryY=0;entryDx=0;entryDy=0;fontSize=10;strokeWidth=1;" edge="1" parent="1" source="MWQz74-mzpOBfi5y9opP-47" target="mw1B3DeKMrc1X_QG4Pau-22">
          <mxGeometry relative="1" as="geometry" />
        </mxCell>
        <mxCell id="MWQz74-mzpOBfi5y9opP-47" value="Login valid" style="rhombus;whiteSpace=wrap;html=1;fontColor=default;fillColor=none;" parent="1" vertex="1">
          <mxGeometry x="395" y="1890" width="80" height="80" as="geometry" />
        </mxCell>
        <mxCell id="MWQz74-mzpOBfi5y9opP-90" value="&lt;font style=&quot;font-size: 10px;&quot;&gt;Non&lt;/font&gt;" style="text;html=1;strokeColor=none;fillColor=none;align=center;verticalAlign=middle;whiteSpace=wrap;rounded=0;fontColor=default;" parent="1" vertex="1">
          <mxGeometry x="460" y="1902" width="60" height="30" as="geometry" />
        </mxCell>
        <mxCell id="MWQz74-mzpOBfi5y9opP-97" value="&lt;font style=&quot;font-size: 10px;&quot;&gt;Oui&lt;/font&gt;&lt;span style=&quot;color: rgba(0, 0, 0, 0); font-family: monospace; font-size: 0px; text-align: start;&quot;&gt;%3CmxGraphModel%3E%3Croot%3E%3CmxCell%20id%3D%220%22%2F%3E%3CmxCell%20id%3D%221%22%20parent%3D%220%22%2F%3E%3CmxCell%20id%3D%222%22%20value%3D%22%26lt%3Bfont%20style%3D%26quot%3Bfont-size%3A%2010px%3B%26quot%3B%26gt%3BNon%26lt%3B%2Ffont%26gt%3B%22%20style%3D%22text%3Bhtml%3D1%3BstrokeColor%3Dnone%3BfillColor%3Dnone%3Balign%3Dcenter%3BverticalAlign%3Dmiddle%3BwhiteSpace%3Dwrap%3Brounded%3D0%3BfontColor%3Ddefault%3B%22%20vertex%3D%221%22%20parent%3D%221%22%3E%3CmxGeometry%20x%3D%22320%22%20y%3D%22960%22%20width%3D%2260%22%20height%3D%2230%22%20as%3D%22geometry%22%2F%3E%3C%2FmxCell%3E%3C%2Froot%3E%3C%2FmxGraphModel%3E&lt;/span&gt;" style="text;html=1;strokeColor=none;fillColor=none;align=center;verticalAlign=middle;whiteSpace=wrap;rounded=0;fontColor=default;" parent="1" vertex="1">
          <mxGeometry x="425" y="1952" width="60" height="30" as="geometry" />
        </mxCell>
        <mxCell id="mw1B3DeKMrc1X_QG4Pau-20" style="edgeStyle=orthogonalEdgeStyle;rounded=0;orthogonalLoop=1;jettySize=auto;html=1;fontSize=10;strokeWidth=1;" edge="1" parent="1" source="aiCcN-2ICW_fQ1aedBpy-7">
          <mxGeometry relative="1" as="geometry">
            <mxPoint x="750" y="2262" as="targetPoint" />
            <Array as="points">
              <mxPoint x="450" y="2142" />
              <mxPoint x="450" y="2262" />
            </Array>
          </mxGeometry>
        </mxCell>
        <mxCell id="aiCcN-2ICW_fQ1aedBpy-7" value="Consulter réponses" style="rounded=0;whiteSpace=wrap;html=1;fillColor=none;" parent="1" vertex="1">
          <mxGeometry x="300" y="2112" width="120" height="60" as="geometry" />
        </mxCell>
        <mxCell id="aiCcN-2ICW_fQ1aedBpy-23" style="edgeStyle=orthogonalEdgeStyle;rounded=0;orthogonalLoop=1;jettySize=auto;html=1;strokeWidth=1;" parent="1" source="aiCcN-2ICW_fQ1aedBpy-9" edge="1">
          <mxGeometry relative="1" as="geometry">
            <mxPoint x="360" y="2292" as="targetPoint" />
          </mxGeometry>
        </mxCell>
        <mxCell id="aiCcN-2ICW_fQ1aedBpy-9" value="Rechercher élève" style="rounded=0;whiteSpace=wrap;html=1;fillColor=none;" parent="1" vertex="1">
          <mxGeometry x="300" y="2202" width="120" height="60" as="geometry" />
        </mxCell>
        <mxCell id="aiCcN-2ICW_fQ1aedBpy-12" value="" style="endArrow=none;html=1;rounded=0;strokeWidth=4;" parent="1" edge="1">
          <mxGeometry width="50" height="50" relative="1" as="geometry">
            <mxPoint x="340" y="2072" as="sourcePoint" />
            <mxPoint x="550" y="2072" as="targetPoint" />
          </mxGeometry>
        </mxCell>
        <mxCell id="7" value="Login" style="fillColor=none;" parent="1" vertex="1">
          <mxGeometry x="380" y="1790" width="110" height="50" as="geometry" />
        </mxCell>
        <mxCell id="MWQz74-mzpOBfi5y9opP-49" style="edgeStyle=orthogonalEdgeStyle;rounded=0;orthogonalLoop=1;jettySize=auto;html=1;entryX=0.5;entryY=0;entryDx=0;entryDy=0;fontColor=default;" parent="1" source="7" target="MWQz74-mzpOBfi5y9opP-47" edge="1">
          <mxGeometry relative="1" as="geometry" />
        </mxCell>
        <mxCell id="mw1B3DeKMrc1X_QG4Pau-16" style="edgeStyle=orthogonalEdgeStyle;rounded=0;orthogonalLoop=1;jettySize=auto;html=1;fontSize=10;strokeWidth=1;" edge="1" parent="1" source="aiCcN-2ICW_fQ1aedBpy-13">
          <mxGeometry relative="1" as="geometry">
            <mxPoint x="280" y="2432" as="targetPoint" />
          </mxGeometry>
        </mxCell>
        <mxCell id="aiCcN-2ICW_fQ1aedBpy-13" value="Editer réponses" style="rounded=0;whiteSpace=wrap;html=1;fillColor=none;" parent="1" vertex="1">
          <mxGeometry x="220" y="2332" width="120" height="60" as="geometry" />
        </mxCell>
        <mxCell id="mw1B3DeKMrc1X_QG4Pau-18" style="edgeStyle=orthogonalEdgeStyle;rounded=0;orthogonalLoop=1;jettySize=auto;html=1;entryX=0;entryY=0.5;entryDx=0;entryDy=0;fontSize=10;strokeWidth=1;" edge="1" parent="1" source="aiCcN-2ICW_fQ1aedBpy-15" target="mw1B3DeKMrc1X_QG4Pau-17">
          <mxGeometry relative="1" as="geometry" />
        </mxCell>
        <mxCell id="aiCcN-2ICW_fQ1aedBpy-15" value="Consulter Statistiques" style="rounded=0;whiteSpace=wrap;html=1;fillColor=none;" parent="1" vertex="1">
          <mxGeometry x="460" y="2112" width="120" height="60" as="geometry" />
        </mxCell>
        <mxCell id="aiCcN-2ICW_fQ1aedBpy-16" value="" style="endArrow=classic;html=1;rounded=0;strokeWidth=1;entryX=0.5;entryY=0;entryDx=0;entryDy=0;" parent="1" target="aiCcN-2ICW_fQ1aedBpy-7" edge="1">
          <mxGeometry width="50" height="50" relative="1" as="geometry">
            <mxPoint x="360" y="2072" as="sourcePoint" />
            <mxPoint x="700" y="2122" as="targetPoint" />
          </mxGeometry>
        </mxCell>
        <mxCell id="aiCcN-2ICW_fQ1aedBpy-17" value="" style="endArrow=classic;html=1;rounded=0;strokeWidth=1;entryX=0.5;entryY=0;entryDx=0;entryDy=0;" parent="1" target="aiCcN-2ICW_fQ1aedBpy-15" edge="1">
          <mxGeometry width="50" height="50" relative="1" as="geometry">
            <mxPoint x="520" y="2072" as="sourcePoint" />
            <mxPoint x="370" y="2122" as="targetPoint" />
          </mxGeometry>
        </mxCell>
        <mxCell id="aiCcN-2ICW_fQ1aedBpy-18" value="" style="endArrow=none;html=1;rounded=0;strokeWidth=4;" parent="1" edge="1">
          <mxGeometry width="50" height="50" relative="1" as="geometry">
            <mxPoint x="260" y="2292" as="sourcePoint" />
            <mxPoint x="600" y="2292" as="targetPoint" />
          </mxGeometry>
        </mxCell>
        <mxCell id="aiCcN-2ICW_fQ1aedBpy-19" value="" style="endArrow=classic;html=1;rounded=0;strokeWidth=1;entryX=0.5;entryY=0;entryDx=0;entryDy=0;" parent="1" edge="1" target="aiCcN-2ICW_fQ1aedBpy-22">
          <mxGeometry width="50" height="50" relative="1" as="geometry">
            <mxPoint x="430" y="2292" as="sourcePoint" />
            <mxPoint x="410" y="2332" as="targetPoint" />
          </mxGeometry>
        </mxCell>
        <mxCell id="aiCcN-2ICW_fQ1aedBpy-21" value="" style="endArrow=classic;html=1;rounded=0;strokeWidth=1;exitX=0.5;exitY=1;exitDx=0;exitDy=0;" parent="1" source="aiCcN-2ICW_fQ1aedBpy-7" edge="1">
          <mxGeometry width="50" height="50" relative="1" as="geometry">
            <mxPoint x="650" y="2252" as="sourcePoint" />
            <mxPoint x="360" y="2202" as="targetPoint" />
          </mxGeometry>
        </mxCell>
        <mxCell id="mw1B3DeKMrc1X_QG4Pau-14" style="edgeStyle=orthogonalEdgeStyle;rounded=0;orthogonalLoop=1;jettySize=auto;html=1;fontSize=10;strokeWidth=1;" edge="1" parent="1" source="aiCcN-2ICW_fQ1aedBpy-22">
          <mxGeometry relative="1" as="geometry">
            <mxPoint x="430" y="2432" as="targetPoint" />
          </mxGeometry>
        </mxCell>
        <mxCell id="aiCcN-2ICW_fQ1aedBpy-22" value="Supprimer réponses" style="rounded=0;whiteSpace=wrap;html=1;fillColor=none;" parent="1" vertex="1">
          <mxGeometry x="370" y="2332" width="120" height="60" as="geometry" />
        </mxCell>
        <mxCell id="aiCcN-2ICW_fQ1aedBpy-24" value="" style="endArrow=none;html=1;rounded=0;strokeWidth=4;" parent="1" edge="1">
          <mxGeometry width="50" height="50" relative="1" as="geometry">
            <mxPoint x="260" y="2432" as="sourcePoint" />
            <mxPoint x="600" y="2432" as="targetPoint" />
          </mxGeometry>
        </mxCell>
        <mxCell id="aiCcN-2ICW_fQ1aedBpy-36" style="edgeStyle=orthogonalEdgeStyle;rounded=0;orthogonalLoop=1;jettySize=auto;html=1;entryX=1;entryY=0.5;entryDx=0;entryDy=0;strokeWidth=1;" parent="1" source="aiCcN-2ICW_fQ1aedBpy-28" target="aiCcN-2ICW_fQ1aedBpy-35" edge="1">
          <mxGeometry relative="1" as="geometry" />
        </mxCell>
        <mxCell id="aiCcN-2ICW_fQ1aedBpy-39" value="" style="edgeStyle=orthogonalEdgeStyle;rounded=0;orthogonalLoop=1;jettySize=auto;html=1;strokeWidth=1;" parent="1" source="aiCcN-2ICW_fQ1aedBpy-28" target="aiCcN-2ICW_fQ1aedBpy-38" edge="1">
          <mxGeometry relative="1" as="geometry" />
        </mxCell>
        <mxCell id="aiCcN-2ICW_fQ1aedBpy-28" value="Sauvegarder" style="rhombus;whiteSpace=wrap;html=1;fillColor=none;" parent="1" vertex="1">
          <mxGeometry x="315" y="2462" width="90" height="90" as="geometry" />
        </mxCell>
        <mxCell id="aiCcN-2ICW_fQ1aedBpy-29" value="" style="endArrow=classic;html=1;rounded=0;strokeWidth=1;entryX=0.5;entryY=0;entryDx=0;entryDy=0;" parent="1" target="aiCcN-2ICW_fQ1aedBpy-28" edge="1">
          <mxGeometry width="50" height="50" relative="1" as="geometry">
            <mxPoint x="360" y="2432" as="sourcePoint" />
            <mxPoint x="700" y="2452" as="targetPoint" />
          </mxGeometry>
        </mxCell>
        <mxCell id="aiCcN-2ICW_fQ1aedBpy-33" value="Non" style="text;html=1;align=center;verticalAlign=middle;resizable=0;points=[];autosize=1;strokeColor=none;fillColor=none;" parent="1" vertex="1">
          <mxGeometry x="270" y="2482" width="40" height="20" as="geometry" />
        </mxCell>
        <mxCell id="aiCcN-2ICW_fQ1aedBpy-42" style="edgeStyle=orthogonalEdgeStyle;rounded=0;orthogonalLoop=1;jettySize=auto;html=1;exitX=0.25;exitY=0;exitDx=0;exitDy=0;strokeWidth=1;" parent="1" source="aiCcN-2ICW_fQ1aedBpy-35" edge="1">
          <mxGeometry relative="1" as="geometry">
            <mxPoint x="170" y="2302" as="targetPoint" />
          </mxGeometry>
        </mxCell>
        <mxCell id="aiCcN-2ICW_fQ1aedBpy-35" value="Réinitialisation des modifications" style="rounded=0;whiteSpace=wrap;html=1;fillColor=none;" parent="1" vertex="1">
          <mxGeometry x="140" y="2477" width="120" height="60" as="geometry" />
        </mxCell>
        <mxCell id="aiCcN-2ICW_fQ1aedBpy-40" style="edgeStyle=orthogonalEdgeStyle;rounded=0;orthogonalLoop=1;jettySize=auto;html=1;strokeWidth=1;" parent="1" source="aiCcN-2ICW_fQ1aedBpy-38" edge="1">
          <mxGeometry relative="1" as="geometry">
            <mxPoint x="120" y="2302" as="targetPoint" />
          </mxGeometry>
        </mxCell>
        <mxCell id="aiCcN-2ICW_fQ1aedBpy-38" value="Enregistrement des modifications" style="whiteSpace=wrap;html=1;fillColor=none;strokeColor=rgb(0, 0, 0);fontColor=rgb(0, 0, 0);" parent="1" vertex="1">
          <mxGeometry x="300" y="2592" width="120" height="60" as="geometry" />
        </mxCell>
        <mxCell id="aiCcN-2ICW_fQ1aedBpy-41" value="" style="endArrow=none;html=1;rounded=0;strokeWidth=4;" parent="1" edge="1">
          <mxGeometry width="50" height="50" relative="1" as="geometry">
            <mxPoint x="110" y="2302" as="sourcePoint" />
            <mxPoint x="190" y="2302" as="targetPoint" />
          </mxGeometry>
        </mxCell>
        <mxCell id="aiCcN-2ICW_fQ1aedBpy-43" value="" style="endArrow=classic;html=1;rounded=0;strokeWidth=1;entryX=0;entryY=0.5;entryDx=0;entryDy=0;" parent="1" target="aiCcN-2ICW_fQ1aedBpy-7" edge="1">
          <mxGeometry width="50" height="50" relative="1" as="geometry">
            <mxPoint x="150" y="2302" as="sourcePoint" />
            <mxPoint x="700" y="2272" as="targetPoint" />
            <Array as="points">
              <mxPoint x="150" y="2142" />
            </Array>
          </mxGeometry>
        </mxCell>
        <mxCell id="aiCcN-2ICW_fQ1aedBpy-47" value="" style="endArrow=none;html=1;rounded=0;strokeWidth=4;" parent="1" edge="1">
          <mxGeometry width="50" height="50" relative="1" as="geometry">
            <mxPoint x="740" y="2282" as="sourcePoint" />
            <mxPoint x="780" y="2222" as="targetPoint" />
          </mxGeometry>
        </mxCell>
        <mxCell id="mw1B3DeKMrc1X_QG4Pau-10" style="edgeStyle=orthogonalEdgeStyle;rounded=0;orthogonalLoop=1;jettySize=auto;html=1;entryX=0.5;entryY=0;entryDx=0;entryDy=0;fontSize=10;" edge="1" parent="1" source="aiCcN-2ICW_fQ1aedBpy-48" target="aiCcN-2ICW_fQ1aedBpy-51">
          <mxGeometry relative="1" as="geometry" />
        </mxCell>
        <mxCell id="aiCcN-2ICW_fQ1aedBpy-48" value="Déconnexion" style="rounded=0;whiteSpace=wrap;html=1;fillColor=none;" parent="1" vertex="1">
          <mxGeometry x="700" y="2332" width="120" height="60" as="geometry" />
        </mxCell>
        <mxCell id="aiCcN-2ICW_fQ1aedBpy-51" value="" style="ellipse;html=1;shape=endState;fillColor=#000000;strokeColor=#ff0000;" parent="1" vertex="1">
          <mxGeometry x="745" y="2447" width="30" height="30" as="geometry" />
        </mxCell>
        <mxCell id="pIqOZxi5pflwb6cRRVeg-7" style="edgeStyle=orthogonalEdgeStyle;rounded=0;orthogonalLoop=1;jettySize=auto;html=1;entryX=0.5;entryY=0;entryDx=0;entryDy=0;fontSize=9;strokeWidth=1;" parent="1" source="pIqOZxi5pflwb6cRRVeg-8" target="pIqOZxi5pflwb6cRRVeg-21" edge="1">
          <mxGeometry relative="1" as="geometry" />
        </mxCell>
        <mxCell id="pIqOZxi5pflwb6cRRVeg-8" value="" style="ellipse;shape=startState;fillColor=#000000;strokeColor=#ff0000;" parent="1" vertex="1">
          <mxGeometry x="420" y="1572" width="30" height="30" as="geometry" />
        </mxCell>
        <mxCell id="pIqOZxi5pflwb6cRRVeg-9" style="edgeStyle=orthogonalEdgeStyle;rounded=0;orthogonalLoop=1;jettySize=auto;html=1;exitX=0.5;exitY=0;exitDx=0;exitDy=0;fontSize=9;strokeWidth=1;" parent="1" source="pIqOZxi5pflwb6cRRVeg-10" edge="1">
          <mxGeometry relative="1" as="geometry">
            <mxPoint x="545.5" y="1832" as="targetPoint" />
            <Array as="points">
              <mxPoint x="580.5" y="1832" />
            </Array>
          </mxGeometry>
        </mxCell>
        <mxCell id="pIqOZxi5pflwb6cRRVeg-25" style="edgeStyle=orthogonalEdgeStyle;rounded=0;orthogonalLoop=1;jettySize=auto;html=1;entryX=0;entryY=0.5;entryDx=0;entryDy=0;" parent="1" source="pIqOZxi5pflwb6cRRVeg-10" target="pIqOZxi5pflwb6cRRVeg-14" edge="1">
          <mxGeometry relative="1" as="geometry" />
        </mxCell>
        <mxCell id="pIqOZxi5pflwb6cRRVeg-10" value="Réinitialisation du mot de pass" style="rhombus;whiteSpace=wrap;html=1;fillColor=none;fontSize=9;" parent="1" vertex="1">
          <mxGeometry x="535.5" y="1884" width="90" height="92" as="geometry" />
        </mxCell>
        <mxCell id="pIqOZxi5pflwb6cRRVeg-11" value="&lt;font style=&quot;font-size: 10px;&quot;&gt;Non&lt;/font&gt;" style="text;html=1;strokeColor=none;fillColor=none;align=center;verticalAlign=middle;whiteSpace=wrap;rounded=0;fontColor=default;" parent="1" vertex="1">
          <mxGeometry x="565.5" y="1846" width="60" height="30" as="geometry" />
        </mxCell>
        <mxCell id="pIqOZxi5pflwb6cRRVeg-12" value="Oui" style="text;html=1;align=center;verticalAlign=middle;resizable=0;points=[];autosize=1;strokeColor=none;fillColor=none;" parent="1" vertex="1">
          <mxGeometry x="620" y="1932" width="30" height="20" as="geometry" />
        </mxCell>
        <mxCell id="pIqOZxi5pflwb6cRRVeg-13" value="" style="edgeStyle=orthogonalEdgeStyle;rounded=0;orthogonalLoop=1;jettySize=auto;html=1;fontSize=9;strokeWidth=1;" parent="1" source="pIqOZxi5pflwb6cRRVeg-14" target="pIqOZxi5pflwb6cRRVeg-18" edge="1">
          <mxGeometry relative="1" as="geometry" />
        </mxCell>
        <mxCell id="pIqOZxi5pflwb6cRRVeg-14" value="Réception par email d&#39;un lien de réinitialisation de mot de passe" style="whiteSpace=wrap;html=1;fontSize=9;fillColor=none;" parent="1" vertex="1">
          <mxGeometry x="690.5" y="1900" width="120" height="60" as="geometry" />
        </mxCell>
        <mxCell id="pIqOZxi5pflwb6cRRVeg-15" value="" style="endArrow=none;html=1;rounded=0;fontSize=9;strokeWidth=4;" parent="1" edge="1">
          <mxGeometry width="50" height="50" relative="1" as="geometry">
            <mxPoint x="535.5" y="1846" as="sourcePoint" />
            <mxPoint x="575.5" y="1782" as="targetPoint" />
          </mxGeometry>
        </mxCell>
        <mxCell id="pIqOZxi5pflwb6cRRVeg-16" value="" style="endArrow=classic;html=1;rounded=0;fontSize=9;strokeWidth=1;entryX=1;entryY=0.5;entryDx=0;entryDy=0;" parent="1" edge="1">
          <mxGeometry width="50" height="50" relative="1" as="geometry">
            <mxPoint x="555.5" y="1815" as="sourcePoint" />
            <mxPoint x="490" y="1815" as="targetPoint" />
          </mxGeometry>
        </mxCell>
        <mxCell id="mw1B3DeKMrc1X_QG4Pau-8" style="edgeStyle=orthogonalEdgeStyle;rounded=0;orthogonalLoop=1;jettySize=auto;html=1;exitX=0.5;exitY=0;exitDx=0;exitDy=0;entryX=0.5;entryY=1;entryDx=0;entryDy=0;fontSize=10;" edge="1" parent="1" source="pIqOZxi5pflwb6cRRVeg-18" target="mw1B3DeKMrc1X_QG4Pau-7">
          <mxGeometry relative="1" as="geometry" />
        </mxCell>
        <mxCell id="pIqOZxi5pflwb6cRRVeg-18" value="Réinitialisation du mot de passe" style="whiteSpace=wrap;html=1;fontSize=10;fillColor=none;" parent="1" vertex="1">
          <mxGeometry x="690" y="1816" width="120" height="60" as="geometry" />
        </mxCell>
        <mxCell id="pIqOZxi5pflwb6cRRVeg-19" style="edgeStyle=orthogonalEdgeStyle;rounded=0;orthogonalLoop=1;jettySize=auto;html=1;entryX=0.5;entryY=0;entryDx=0;entryDy=0;fontSize=9;strokeWidth=1;" parent="1" source="pIqOZxi5pflwb6cRRVeg-21" edge="1">
          <mxGeometry relative="1" as="geometry">
            <mxPoint x="435" y="1790" as="targetPoint" />
          </mxGeometry>
        </mxCell>
        <mxCell id="pIqOZxi5pflwb6cRRVeg-20" value="" style="edgeStyle=orthogonalEdgeStyle;rounded=0;orthogonalLoop=1;jettySize=auto;html=1;fontSize=9;strokeWidth=1;entryX=1;entryY=0.5;entryDx=0;entryDy=0;" parent="1" source="pIqOZxi5pflwb6cRRVeg-21" target="pIqOZxi5pflwb6cRRVeg-14" edge="1">
          <mxGeometry relative="1" as="geometry">
            <mxPoint x="555" y="1692" as="targetPoint" />
          </mxGeometry>
        </mxCell>
        <mxCell id="pIqOZxi5pflwb6cRRVeg-21" value="Première utilisation" style="rhombus;whiteSpace=wrap;html=1;fontSize=10;fillColor=none;" parent="1" vertex="1">
          <mxGeometry x="385" y="1642" width="100" height="100" as="geometry" />
        </mxCell>
        <mxCell id="pIqOZxi5pflwb6cRRVeg-22" value="&lt;font style=&quot;font-size: 10px;&quot;&gt;Non&lt;/font&gt;" style="text;html=1;strokeColor=none;fillColor=none;align=center;verticalAlign=middle;whiteSpace=wrap;rounded=0;fontColor=default;" parent="1" vertex="1">
          <mxGeometry x="385" y="1742" width="60" height="30" as="geometry" />
        </mxCell>
        <mxCell id="pIqOZxi5pflwb6cRRVeg-23" value="Oui" style="text;html=1;align=center;verticalAlign=middle;resizable=0;points=[];autosize=1;strokeColor=none;fillColor=none;" parent="1" vertex="1">
          <mxGeometry x="475" y="1662" width="30" height="20" as="geometry" />
        </mxCell>
        <mxCell id="mw1B3DeKMrc1X_QG4Pau-9" style="edgeStyle=orthogonalEdgeStyle;rounded=0;orthogonalLoop=1;jettySize=auto;html=1;fontSize=10;" edge="1" parent="1" source="mw1B3DeKMrc1X_QG4Pau-7">
          <mxGeometry relative="1" as="geometry">
            <mxPoint x="570" y="1800" as="targetPoint" />
          </mxGeometry>
        </mxCell>
        <mxCell id="mw1B3DeKMrc1X_QG4Pau-7" value="Entrer nouveau mot de passe" style="rounded=0;whiteSpace=wrap;html=1;fillColor=none;" vertex="1" parent="1">
          <mxGeometry x="690" y="1740" width="120" height="60" as="geometry" />
        </mxCell>
        <mxCell id="mw1B3DeKMrc1X_QG4Pau-12" style="edgeStyle=orthogonalEdgeStyle;rounded=0;orthogonalLoop=1;jettySize=auto;html=1;fontSize=10;" edge="1" parent="1" source="mw1B3DeKMrc1X_QG4Pau-11">
          <mxGeometry relative="1" as="geometry">
            <mxPoint x="580" y="2432" as="targetPoint" />
          </mxGeometry>
        </mxCell>
        <mxCell id="mw1B3DeKMrc1X_QG4Pau-11" value="Imprimer" style="rounded=0;whiteSpace=wrap;html=1;fontSize=12;fillColor=none;" vertex="1" parent="1">
          <mxGeometry x="520" y="2332" width="120" height="60" as="geometry" />
        </mxCell>
        <mxCell id="mw1B3DeKMrc1X_QG4Pau-13" value="" style="endArrow=classic;html=1;rounded=0;fontSize=10;strokeWidth=1;entryX=0.5;entryY=0;entryDx=0;entryDy=0;" edge="1" parent="1" target="mw1B3DeKMrc1X_QG4Pau-11">
          <mxGeometry width="50" height="50" relative="1" as="geometry">
            <mxPoint x="580" y="2292" as="sourcePoint" />
            <mxPoint x="610" y="2202" as="targetPoint" />
          </mxGeometry>
        </mxCell>
        <mxCell id="mw1B3DeKMrc1X_QG4Pau-15" value="" style="endArrow=classic;html=1;rounded=0;fontSize=10;strokeWidth=1;entryX=0.5;entryY=0;entryDx=0;entryDy=0;" edge="1" parent="1" target="aiCcN-2ICW_fQ1aedBpy-13">
          <mxGeometry width="50" height="50" relative="1" as="geometry">
            <mxPoint x="280" y="2292" as="sourcePoint" />
            <mxPoint x="610" y="2372" as="targetPoint" />
          </mxGeometry>
        </mxCell>
        <mxCell id="mw1B3DeKMrc1X_QG4Pau-19" style="edgeStyle=orthogonalEdgeStyle;rounded=0;orthogonalLoop=1;jettySize=auto;html=1;fontSize=10;strokeWidth=1;" edge="1" parent="1" source="mw1B3DeKMrc1X_QG4Pau-17">
          <mxGeometry relative="1" as="geometry">
            <mxPoint x="770" y="2232" as="targetPoint" />
            <Array as="points">
              <mxPoint x="670" y="2232" />
            </Array>
          </mxGeometry>
        </mxCell>
        <mxCell id="mw1B3DeKMrc1X_QG4Pau-17" value="Imprimer" style="rounded=0;whiteSpace=wrap;html=1;fontSize=12;fillColor=none;" vertex="1" parent="1">
          <mxGeometry x="610" y="2112" width="120" height="60" as="geometry" />
        </mxCell>
        <mxCell id="mw1B3DeKMrc1X_QG4Pau-21" value="" style="endArrow=classic;html=1;rounded=0;fontSize=10;strokeWidth=1;entryX=0.5;entryY=0;entryDx=0;entryDy=0;" edge="1" parent="1" target="aiCcN-2ICW_fQ1aedBpy-48">
          <mxGeometry width="50" height="50" relative="1" as="geometry">
            <mxPoint x="760" y="2252" as="sourcePoint" />
            <mxPoint x="610" y="2202" as="targetPoint" />
          </mxGeometry>
        </mxCell>
        <mxCell id="mw1B3DeKMrc1X_QG4Pau-23" style="edgeStyle=orthogonalEdgeStyle;rounded=0;orthogonalLoop=1;jettySize=auto;html=1;fontSize=10;strokeWidth=1;" edge="1" parent="1" source="mw1B3DeKMrc1X_QG4Pau-22">
          <mxGeometry relative="1" as="geometry">
            <mxPoint x="435" y="2070" as="targetPoint" />
          </mxGeometry>
        </mxCell>
        <mxCell id="mw1B3DeKMrc1X_QG4Pau-22" value="Sélectionner questionnaire" style="rounded=0;whiteSpace=wrap;html=1;fontSize=10;fillColor=none;" vertex="1" parent="1">
          <mxGeometry x="382.5" y="2000" width="105" height="48" as="geometry" />
        </mxCell>
      </root>
    </mxGraphModel>
  </diagram>
</mxfile>
